<mxfile host="app.diagrams.net" modified="2021-06-07T01:09:06.314Z" agent="5.0 (Windows NT 10.0; Win64; x64) AppleWebKit/537.36 (KHTML, like Gecko) Chrome/91.0.4472.77 Safari/537.36" etag="5JCksglgt46Ac_NKDsbv" version="14.7.4" type="github">
  <diagram id="C5RBs43oDa-KdzZeNtuy" name="Page-1">
    <mxGraphModel dx="743" dy="565" grid="1" gridSize="10" guides="1" tooltips="1" connect="1" arrows="1" fold="1" page="1" pageScale="1" pageWidth="827" pageHeight="1169" math="0" shadow="0">
      <root>
        <mxCell id="WIyWlLk6GJQsqaUBKTNV-0" />
        <mxCell id="WIyWlLk6GJQsqaUBKTNV-1" parent="WIyWlLk6GJQsqaUBKTNV-0" />
        <mxCell id="tB2mMKvzdS00NjSyp67Q-13" value="" style="rounded=1;whiteSpace=wrap;html=1;fontSize=12;glass=0;strokeWidth=1;shadow=0;" vertex="1" parent="WIyWlLk6GJQsqaUBKTNV-1">
          <mxGeometry x="310" y="350" width="230" height="360" as="geometry" />
        </mxCell>
        <mxCell id="WIyWlLk6GJQsqaUBKTNV-2" value="" style="rounded=0;html=1;jettySize=auto;orthogonalLoop=1;fontSize=11;endArrow=block;endFill=0;endSize=8;strokeWidth=1;shadow=0;labelBackgroundColor=none;edgeStyle=orthogonalEdgeStyle;" parent="WIyWlLk6GJQsqaUBKTNV-1" source="WIyWlLk6GJQsqaUBKTNV-3" edge="1">
          <mxGeometry relative="1" as="geometry">
            <mxPoint x="410" y="170" as="targetPoint" />
          </mxGeometry>
        </mxCell>
        <mxCell id="WIyWlLk6GJQsqaUBKTNV-3" value="app launch" style="rounded=1;whiteSpace=wrap;html=1;fontSize=12;glass=0;strokeWidth=1;shadow=0;" parent="WIyWlLk6GJQsqaUBKTNV-1" vertex="1">
          <mxGeometry x="350" y="80" width="120" height="40" as="geometry" />
        </mxCell>
        <mxCell id="tB2mMKvzdS00NjSyp67Q-2" style="edgeStyle=orthogonalEdgeStyle;rounded=0;orthogonalLoop=1;jettySize=auto;html=1;exitX=0.5;exitY=1;exitDx=0;exitDy=0;entryX=0.5;entryY=0;entryDx=0;entryDy=0;" edge="1" parent="WIyWlLk6GJQsqaUBKTNV-1" source="WIyWlLk6GJQsqaUBKTNV-7" target="tB2mMKvzdS00NjSyp67Q-1">
          <mxGeometry relative="1" as="geometry" />
        </mxCell>
        <mxCell id="WIyWlLk6GJQsqaUBKTNV-7" value="run engine" style="rounded=1;whiteSpace=wrap;html=1;fontSize=12;glass=0;strokeWidth=1;shadow=0;" parent="WIyWlLk6GJQsqaUBKTNV-1" vertex="1">
          <mxGeometry x="350" y="170" width="120" height="40" as="geometry" />
        </mxCell>
        <mxCell id="tB2mMKvzdS00NjSyp67Q-8" style="edgeStyle=orthogonalEdgeStyle;rounded=0;orthogonalLoop=1;jettySize=auto;html=1;entryX=0;entryY=0.5;entryDx=0;entryDy=0;" edge="1" parent="WIyWlLk6GJQsqaUBKTNV-1" source="tB2mMKvzdS00NjSyp67Q-0" target="tB2mMKvzdS00NjSyp67Q-7">
          <mxGeometry relative="1" as="geometry">
            <Array as="points">
              <mxPoint x="290" y="320" />
              <mxPoint x="290" y="390" />
            </Array>
          </mxGeometry>
        </mxCell>
        <mxCell id="tB2mMKvzdS00NjSyp67Q-0" value="mainwidget&lt;br&gt;&amp;nbsp; &amp;nbsp;build: &lt;br&gt;&amp;nbsp; &amp;nbsp;{child, &lt;br&gt;&amp;nbsp; &amp;nbsp; init_eom({route to external widget})}&lt;br&gt;&lt;br&gt;externalwidget&lt;br&gt;&amp;nbsp; &amp;nbsp;build:&lt;br&gt;&amp;nbsp; &amp;nbsp;{child}" style="rounded=1;whiteSpace=wrap;html=1;fontSize=12;glass=0;strokeWidth=1;shadow=0;align=left;" vertex="1" parent="WIyWlLk6GJQsqaUBKTNV-1">
          <mxGeometry x="10" y="170" width="230" height="280" as="geometry" />
        </mxCell>
        <mxCell id="tB2mMKvzdS00NjSyp67Q-5" style="edgeStyle=orthogonalEdgeStyle;rounded=0;orthogonalLoop=1;jettySize=auto;html=1;" edge="1" parent="WIyWlLk6GJQsqaUBKTNV-1" source="tB2mMKvzdS00NjSyp67Q-1">
          <mxGeometry relative="1" as="geometry">
            <mxPoint x="410" y="290" as="targetPoint" />
          </mxGeometry>
        </mxCell>
        <mxCell id="tB2mMKvzdS00NjSyp67Q-1" value="Create main window" style="rounded=1;whiteSpace=wrap;html=1;fontSize=12;glass=0;strokeWidth=1;shadow=0;" vertex="1" parent="WIyWlLk6GJQsqaUBKTNV-1">
          <mxGeometry x="350" y="230" width="120" height="40" as="geometry" />
        </mxCell>
        <mxCell id="tB2mMKvzdS00NjSyp67Q-6" style="edgeStyle=orthogonalEdgeStyle;rounded=0;orthogonalLoop=1;jettySize=auto;html=1;entryX=1.009;entryY=0.442;entryDx=0;entryDy=0;entryPerimeter=0;" edge="1" parent="WIyWlLk6GJQsqaUBKTNV-1" source="tB2mMKvzdS00NjSyp67Q-4" target="tB2mMKvzdS00NjSyp67Q-0">
          <mxGeometry relative="1" as="geometry">
            <mxPoint x="270" y="300" as="targetPoint" />
          </mxGeometry>
        </mxCell>
        <mxCell id="tB2mMKvzdS00NjSyp67Q-4" value="Render" style="rounded=1;whiteSpace=wrap;html=1;fontSize=12;glass=0;strokeWidth=1;shadow=0;" vertex="1" parent="WIyWlLk6GJQsqaUBKTNV-1">
          <mxGeometry x="350" y="295" width="120" height="40" as="geometry" />
        </mxCell>
        <mxCell id="tB2mMKvzdS00NjSyp67Q-14" style="edgeStyle=orthogonalEdgeStyle;rounded=0;orthogonalLoop=1;jettySize=auto;html=1;entryX=0.5;entryY=0;entryDx=0;entryDy=0;" edge="1" parent="WIyWlLk6GJQsqaUBKTNV-1" source="tB2mMKvzdS00NjSyp67Q-7" target="tB2mMKvzdS00NjSyp67Q-9">
          <mxGeometry relative="1" as="geometry" />
        </mxCell>
        <mxCell id="tB2mMKvzdS00NjSyp67Q-7" value="Init eom" style="rounded=1;whiteSpace=wrap;html=1;fontSize=12;glass=0;strokeWidth=1;shadow=0;" vertex="1" parent="WIyWlLk6GJQsqaUBKTNV-1">
          <mxGeometry x="350" y="370" width="120" height="40" as="geometry" />
        </mxCell>
        <mxCell id="tB2mMKvzdS00NjSyp67Q-15" style="edgeStyle=orthogonalEdgeStyle;rounded=0;orthogonalLoop=1;jettySize=auto;html=1;entryX=0.5;entryY=0;entryDx=0;entryDy=0;" edge="1" parent="WIyWlLk6GJQsqaUBKTNV-1" source="tB2mMKvzdS00NjSyp67Q-9" target="tB2mMKvzdS00NjSyp67Q-10">
          <mxGeometry relative="1" as="geometry" />
        </mxCell>
        <mxCell id="tB2mMKvzdS00NjSyp67Q-9" value="get outputid from eom" style="rounded=1;whiteSpace=wrap;html=1;fontSize=12;glass=0;strokeWidth=1;shadow=0;" vertex="1" parent="WIyWlLk6GJQsqaUBKTNV-1">
          <mxGeometry x="350" y="440" width="120" height="40" as="geometry" />
        </mxCell>
        <mxCell id="tB2mMKvzdS00NjSyp67Q-17" style="edgeStyle=orthogonalEdgeStyle;rounded=0;orthogonalLoop=1;jettySize=auto;html=1;entryX=0.5;entryY=0;entryDx=0;entryDy=0;" edge="1" parent="WIyWlLk6GJQsqaUBKTNV-1" source="tB2mMKvzdS00NjSyp67Q-10" target="tB2mMKvzdS00NjSyp67Q-11">
          <mxGeometry relative="1" as="geometry" />
        </mxCell>
        <mxCell id="tB2mMKvzdS00NjSyp67Q-10" value="create new flutter engine" style="rounded=1;whiteSpace=wrap;html=1;fontSize=12;glass=0;strokeWidth=1;shadow=0;" vertex="1" parent="WIyWlLk6GJQsqaUBKTNV-1">
          <mxGeometry x="350" y="510" width="120" height="40" as="geometry" />
        </mxCell>
        <mxCell id="tB2mMKvzdS00NjSyp67Q-18" style="edgeStyle=orthogonalEdgeStyle;rounded=0;orthogonalLoop=1;jettySize=auto;html=1;entryX=0.5;entryY=0;entryDx=0;entryDy=0;" edge="1" parent="WIyWlLk6GJQsqaUBKTNV-1" source="tB2mMKvzdS00NjSyp67Q-11" target="tB2mMKvzdS00NjSyp67Q-12">
          <mxGeometry relative="1" as="geometry" />
        </mxCell>
        <mxCell id="tB2mMKvzdS00NjSyp67Q-11" value="set window to outputid" style="rounded=1;whiteSpace=wrap;html=1;fontSize=12;glass=0;strokeWidth=1;shadow=0;" vertex="1" parent="WIyWlLk6GJQsqaUBKTNV-1">
          <mxGeometry x="350" y="584.5" width="120" height="40" as="geometry" />
        </mxCell>
        <mxCell id="tB2mMKvzdS00NjSyp67Q-20" style="edgeStyle=orthogonalEdgeStyle;rounded=0;orthogonalLoop=1;jettySize=auto;html=1;entryX=0.5;entryY=0;entryDx=0;entryDy=0;" edge="1" parent="WIyWlLk6GJQsqaUBKTNV-1" source="tB2mMKvzdS00NjSyp67Q-12" target="tB2mMKvzdS00NjSyp67Q-19">
          <mxGeometry relative="1" as="geometry" />
        </mxCell>
        <mxCell id="tB2mMKvzdS00NjSyp67Q-12" value="set {route to external widget} to engine" style="rounded=1;whiteSpace=wrap;html=1;fontSize=12;glass=0;strokeWidth=1;shadow=0;" vertex="1" parent="WIyWlLk6GJQsqaUBKTNV-1">
          <mxGeometry x="354" y="660" width="120" height="40" as="geometry" />
        </mxCell>
        <mxCell id="tB2mMKvzdS00NjSyp67Q-21" style="edgeStyle=orthogonalEdgeStyle;rounded=0;orthogonalLoop=1;jettySize=auto;html=1;entryX=1;entryY=0.693;entryDx=0;entryDy=0;entryPerimeter=0;" edge="1" parent="WIyWlLk6GJQsqaUBKTNV-1" source="tB2mMKvzdS00NjSyp67Q-19" target="tB2mMKvzdS00NjSyp67Q-0">
          <mxGeometry relative="1" as="geometry">
            <Array as="points">
              <mxPoint x="270" y="750" />
              <mxPoint x="270" y="364" />
            </Array>
          </mxGeometry>
        </mxCell>
        <mxCell id="tB2mMKvzdS00NjSyp67Q-19" value="Render" style="rounded=1;whiteSpace=wrap;html=1;fontSize=12;glass=0;strokeWidth=1;shadow=0;" vertex="1" parent="WIyWlLk6GJQsqaUBKTNV-1">
          <mxGeometry x="354" y="730" width="120" height="40" as="geometry" />
        </mxCell>
      </root>
    </mxGraphModel>
  </diagram>
</mxfile>
